# 3ds Max Wavefront OBJ Exporter v0.97b - (c)2007 guruware
# File Created: 08.11.2019 07:05:12

mtllib part_19_opt_2.mtl

#
# object Box022
#

v  -78.2620 96.7006 -237.3337
v  -54.8696 96.7006 -237.4525
v  -54.8705 52.8596 -237.5978
v  -78.2629 52.8596 -237.4790
v  -54.8917 96.7228 -240.9862
v  -78.2841 96.7228 -240.8674
v  -78.2850 52.8817 -241.0128
v  -54.8926 52.8817 -241.1316
v  -54.8706 49.1541 -237.6101
v  -54.8927 49.1762 -241.1439
v  -78.2851 49.1762 -241.0251
v  -78.2629 49.1541 -237.4913
v  -78.2619 100.4062 -237.3214
v  -78.2840 100.4283 -240.8551
v  -54.8916 100.4283 -240.9740
v  -54.8695 100.4062 -237.4402
v  -71.3631 100.2688 -195.8941
v  -61.3405 100.2688 -196.0129
v  -61.3405 96.5633 -196.0252
v  -71.3631 96.5633 -195.9064
v  -61.3415 49.0167 -196.1828
v  -71.3641 49.0167 -196.0640
v  -71.3641 52.7222 -196.0517
v  -61.3414 52.7222 -196.1705
v  -55.6538 100.2949 -203.8779
v  -77.1367 100.2949 -203.7591
v  -55.6539 96.5893 -203.8902
v  -77.1368 96.5893 -203.7714
v  -77.1378 49.0428 -203.9290
v  -55.6549 49.0428 -204.0479
v  -77.1377 52.7483 -203.9167
v  -55.6548 52.7483 -204.0356
# 32 vertices

vn 0.0051 -0.0033 1.0000
vn -0.0051 0.0033 -1.0000
vn -0.0000 -1.0000 -0.0063
vn -1.0000 0.0000 0.0063
vn 0.0000 1.0000 0.0063
vn 1.0000 0.0000 -0.0063
vn 0.0119 -0.0033 0.9999
vn 0.0000 1.0000 0.0033
vn 0.9997 -0.0001 0.0234
vn -0.0000 -1.0000 -0.0033
vn -0.9994 -0.0001 0.0335
vn 0.8104 -0.0020 0.5859
vn -0.8061 -0.0020 0.5918
# 13 vertex normals

vt 0.0000 0.9277 0.0000
vt 1.0000 0.9277 0.0000
vt 1.0000 0.0723 0.0000
vt 0.0000 0.0723 0.0000
vt 0.0000 0.0000 0.0000
vt 0.0000 1.0000 0.0000
vt 1.0000 1.0000 0.0000
vt 1.0000 0.0000 0.0000
vt 0.9277 1.0000 0.0000
vt 0.9277 0.0000 0.0000
vt 0.0723 0.0000 0.0000
vt 0.0723 1.0000 0.0000
# 12 texture coords

g Box022
usemtl wire_135059008
s 2
f 4/4/1 3/3/1 2/2/1 1/1/1 
s 4
f 8/4/2 7/3/2 6/2/2 5/1/2 
s 8
f 12/8/3 11/7/3 10/6/3 9/5/3 
s 16
f 7/12/4 4/11/4 1/10/4 6/9/4 
s 32
f 16/8/5 15/7/5 14/6/5 13/5/5 
s 64
f 5/12/6 2/11/6 3/10/6 8/9/6 
s 2
f 20/1/7 19/2/7 18/7/7 17/6/7 
f 24/3/7 23/4/7 22/5/7 21/8/7 
s 4
f 5/1/2 6/2/2 14/7/2 15/6/2 
f 7/3/2 8/4/2 10/5/2 11/8/2 
s 16
f 6/9/4 1/10/4 13/8/4 14/7/4 
f 4/11/4 7/12/4 11/6/4 12/5/4 
s 64
f 8/9/6 3/10/6 9/8/6 10/7/6 
f 2/11/6 5/12/6 15/6/6 16/5/6 
s off
f 26/6/8 25/7/8 16/7/8 13/6/8 
f 25/7/9 27/2/9 2/2/9 16/7/9 
f 27/2/10 28/1/10 1/1/10 2/2/10 
f 28/1/11 26/6/11 13/6/11 1/1/11 
f 30/8/10 29/5/10 12/5/10 9/8/10 
f 29/5/11 31/4/11 4/4/11 12/5/11 
f 31/4/8 32/3/8 3/3/8 4/4/8 
f 32/3/9 30/8/9 9/8/9 3/3/9 
f 17/6/8 18/7/8 25/7/8 26/6/8 
f 18/7/12 19/2/12 27/2/12 25/7/12 
f 19/2/10 20/1/10 28/1/10 27/2/10 
f 20/1/13 17/6/13 26/6/13 28/1/13 
f 21/8/10 22/5/10 29/5/10 30/8/10 
f 22/5/13 23/4/13 31/4/13 29/5/13 
f 23/4/8 24/3/8 32/3/8 31/4/8 
f 24/3/12 21/8/12 30/8/12 32/3/12 
# 30 polygons

