# 3ds Max Wavefront OBJ Exporter v0.97b - (c)2007 guruware
# File Created: 08.11.2019 07:08:17

mtllib part_20_opt_2.mtl

#
# object Box006
#

v  -160.2180 93.3534 -126.2579
v  -161.1020 94.4201 -72.6338
v  -121.9282 94.4201 -72.0362
v  -121.0443 93.3534 -125.6603
v  -161.1028 91.9220 -72.5841
v  -160.2189 90.8553 -126.2082
v  -121.0451 90.8553 -125.6106
v  -121.9290 91.9220 -71.9865
v  -164.1632 93.3534 -126.3181
v  -164.1640 90.8553 -126.2684
v  -165.0479 91.9220 -72.6443
v  -165.0471 94.4201 -72.6940
v  -117.9830 94.4201 -71.9760
v  -117.9839 91.9220 -71.9264
v  -117.0999 90.8553 -125.5505
v  -117.0991 93.3534 -125.6002
v  -165.0595 53.6391 -71.8830
v  -164.1756 62.3368 -122.5475
v  -160.2305 62.3368 -122.4873
v  -161.1144 53.6391 -71.8228
v  -117.1116 62.3368 -121.8296
v  -117.9955 53.6391 -71.1650
v  -121.9406 53.6391 -71.2252
v  -121.0567 62.3368 -121.8897
v  -165.6404 64.2814 -27.1421
v  -161.6953 64.2814 -27.0819
v  -161.6897 80.4482 -27.4477
v  -165.6349 80.4482 -27.5079
v  -122.5215 64.2814 -26.4843
v  -118.5764 64.2814 -26.4241
v  -118.5708 80.4483 -26.7899
v  -122.5159 80.4483 -26.8501
v  -165.6318 85.4662 -47.0683
v  -161.6867 85.4662 -47.0081
v  -165.6435 57.1383 -46.3070
v  -161.6983 57.1383 -46.2468
v  -122.5129 85.4662 -46.4105
v  -118.5678 85.4662 -46.3503
v  -122.5245 57.1383 -45.6492
v  -118.5794 57.1383 -45.5890
# 40 vertices

vn 0.0003 0.9998 -0.0199
vn -0.0003 -0.9998 0.0199
vn 0.0152 -0.0199 -0.9997
vn -0.9999 0.0000 -0.0165
vn -0.0152 0.0199 0.9997
vn 0.9999 -0.0000 0.0165
vn 0.0026 -0.9856 -0.1692
vn -0.9999 -0.0008 -0.0170
vn 0.0151 -0.1294 -0.9915
vn 0.9999 0.0008 0.0170
vn -0.0152 0.0226 0.9996
vn -0.0153 0.0226 0.9996
vn -0.0037 0.9696 0.2447
vn -0.9997 -0.0002 -0.0228
vn -0.0021 -0.9908 0.1355
vn 0.9997 0.0002 0.0228
vn -0.0053 -0.9370 0.3492
vn -0.0038 0.9686 0.2485
vn -1.0000 0.0004 -0.0000
vn 1.0000 -0.0004 0.0000
# 20 vertex normals

vt 0.0838 0.0000 0.0000
vt 0.0838 1.0000 0.0000
vt 0.9162 1.0000 0.0000
vt 0.9162 0.0000 0.0000
vt 0.0000 0.0000 0.0000
vt 0.0000 1.0000 0.0000
vt 1.0000 1.0000 0.0000
vt 1.0000 0.0000 0.0000
# 8 texture coords

g Box006
usemtl wire_143225087
s 2
f 1/1/1 2/2/1 3/3/1 4/4/1 
s 4
f 5/3/2 6/4/2 7/1/2 8/2/2 
s 8
f 6/3/3 1/4/3 4/1/3 7/2/3 
s 16
f 9/5/4 10/6/4 11/7/4 12/8/4 
s 32
f 8/3/5 3/4/5 2/1/5 5/2/5 
s 64
f 13/5/6 14/6/6 15/7/6 16/8/6 
s 2
f 9/5/1 12/6/1 2/2/1 1/1/1 
f 13/7/1 16/8/1 4/4/1 3/3/1 
s 4
f 17/7/7 18/8/7 19/4/7 20/3/7 
f 21/5/7 22/6/7 23/2/7 24/1/7 
s 8
f 10/7/3 9/8/3 1/4/3 6/3/3 
f 16/5/3 15/6/3 7/2/3 4/1/3 
s 32
f 14/7/5 13/8/5 3/4/5 8/3/5 
f 12/5/5 11/6/5 5/2/5 2/1/5 
s off
f 11/7/8 10/8/8 18/8/8 17/7/8 
f 10/8/9 6/4/9 19/4/9 18/8/9 
f 6/4/10 5/3/10 20/3/10 19/4/10 
f 25/7/11 26/3/11 27/3/11 28/7/11 
f 15/5/10 14/6/10 22/6/10 21/5/10 
f 29/2/12 30/6/12 31/6/12 32/2/12 
f 8/2/8 7/1/8 24/1/8 23/2/8 
f 7/1/9 15/5/9 21/5/9 24/1/9 
f 5/3/13 11/7/13 33/7/13 34/3/13 
f 17/7/14 35/7/14 33/7/14 11/7/14 
f 17/7/15 20/3/15 36/3/15 35/7/15 
f 20/3/16 5/3/16 34/3/16 36/3/16 
f 14/6/13 8/2/13 37/2/13 38/6/13 
f 23/2/14 39/2/14 37/2/14 8/2/14 
f 23/2/15 22/6/15 40/6/15 39/2/15 
f 22/6/16 14/6/16 38/6/16 40/6/16 
f 35/7/17 36/3/17 26/3/17 25/7/17 
f 34/3/18 33/7/18 28/7/18 27/3/18 
f 39/2/17 40/6/17 30/6/17 29/2/17 
f 38/6/18 37/2/18 32/2/18 31/6/18 
f 25/7/19 28/7/19 33/7/19 35/7/19 
f 34/3/20 27/3/20 26/3/20 36/3/20 
f 29/2/19 32/2/19 37/2/19 39/2/19 
f 38/6/20 31/6/20 30/6/20 40/6/20 
# 38 polygons

