# 3ds Max Wavefront OBJ Exporter v0.97b - (c)2007 guruware
# File Created: 10.11.2019 05:44:47

mtllib part_12.mtl

#
# object Box002
#

v  -343.6873 55.7436 -439.5158
v  -343.7617 67.4817 -439.5149
v  -343.9857 67.4817 -458.4063
v  -343.9113 55.7436 -458.4072
v  -319.2197 55.8987 -439.8059
v  -319.4437 55.8987 -458.6974
v  -319.5181 67.6369 -458.6965
v  -319.2941 67.6369 -439.8051
# 8 vertices

vn -0.9999 -0.0063 0.0119
vn 0.9999 0.0063 -0.0119
vn 0.0063 -1.0000 -0.0001
vn -0.0119 -0.0000 -0.9999
vn -0.0063 1.0000 0.0001
vn 0.0119 0.0000 0.9999
# 6 vertex normals

vt 1.0000 0.0000 0.0000
vt 1.0000 1.0000 0.0000
vt 0.0000 1.0000 0.0000
vt 0.0000 0.0000 0.0000
# 4 texture coords

g Box002
usemtl 01___Default
s 2
f 1/1/1 2/2/1 3/3/1 4/4/1 
s 4
f 5/4/2 6/1/2 7/2/2 8/3/2 
s 8
f 1/4/3 4/1/3 6/2/3 5/3/3 
s 16
f 4/4/4 3/1/4 7/2/4 6/3/4 
s 32
f 3/4/5 2/1/5 8/2/5 7/3/5 
s 64
f 2/4/6 1/1/6 5/2/6 8/3/6 
# 6 polygons

