# 3ds Max Wavefront OBJ Exporter v0.97b - (c)2007 guruware
# File Created: 08.11.2019 07:04:53

mtllib part_17_opt_2.mtl

#
# object Box016
#

v  -45.8079 82.7608 -217.4532
v  -45.8077 59.8224 -217.4550
v  -45.8076 59.8190 -173.8568
v  -45.8078 82.7573 -173.8549
v  -83.4016 74.7014 -209.7393
v  -83.4015 74.7010 -204.1664
v  -83.4017 67.8776 -204.1669
v  -83.4017 67.8780 -209.7398
v  -48.9451 88.9461 -218.4533
v  -78.5766 88.9449 -218.4532
v  -78.5763 53.6359 -218.4559
v  -48.9448 53.6371 -218.4560
v  -78.5761 53.6319 -167.8755
v  -48.9446 53.6331 -167.8756
v  -78.5764 88.9409 -167.8727
v  -48.9449 88.9421 -167.8728
v  -48.9448 59.8224 -217.4550
v  -48.9450 82.7607 -217.4532
v  -48.9447 59.8189 -173.8567
v  -48.9449 82.7573 -173.8549
v  -78.5764 82.7561 -173.8548
v  -78.5765 82.7595 -217.4531
v  -78.5762 59.8177 -173.8566
v  -78.5763 59.8211 -217.4549
v  -81.7134 82.7560 -173.8548
v  -81.7136 82.7595 -217.4530
v  -81.7132 59.8177 -173.8566
v  -81.7134 59.8211 -217.4548
v  -81.7133 74.7009 -204.1664
v  -81.7134 74.7014 -209.7393
v  -81.7135 67.8775 -204.1670
v  -81.7136 67.8780 -209.7398
# 32 vertices

vn 1.0000 0.0000 -0.0000
vn -1.0000 0.0000 0.0000
vn -0.0000 0.0001 -1.0000
vn 0.0000 -1.0000 -0.0001
vn 0.0000 -0.0001 1.0000
vn -0.0000 1.0000 0.0001
vn -1.0000 -0.0000 0.0000
vn 0.0000 1.0000 0.0001
vn -0.0000 -1.0000 -0.0001
# 9 vertex normals

vt 1.0000 0.0000 0.0000
vt 0.0000 0.0000 0.0000
vt 0.0000 1.0000 0.0000
vt 1.0000 1.0000 0.0000
# 4 texture coords

g Box016
usemtl wire_113135006
s 2
f 4/4/1 3/3/1 2/2/1 1/1/1 
s 4
f 8/1/2 7/4/2 6/3/2 5/2/2 
s 8
f 12/1/3 11/4/3 10/3/3 9/2/3 
s 16
f 14/1/4 13/4/4 11/3/4 12/2/4 
s 32
f 16/1/5 15/4/5 13/3/5 14/2/5 
s 64
f 9/1/6 10/4/6 15/3/6 16/2/6 
s off
f 18/1/1 17/2/1 12/2/1 9/1/1 
f 17/2/1 19/3/1 14/3/1 12/2/1 
f 19/3/1 20/4/1 16/4/1 14/3/1 
f 20/4/1 18/1/1 9/1/1 16/4/1 
f 22/2/7 21/3/7 15/3/7 10/2/7 
f 21/3/7 23/4/7 13/4/7 15/3/7 
f 23/4/7 24/1/7 11/1/7 13/4/7 
f 24/1/7 22/2/7 10/2/7 11/1/7 
f 1/1/3 2/2/3 17/2/3 18/1/3 
f 2/2/4 3/3/4 19/3/4 17/2/4 
f 3/3/5 4/4/5 20/4/5 19/3/5 
f 4/4/6 1/1/6 18/1/6 20/4/6 
f 26/2/6 25/3/6 21/3/6 22/2/6 
f 25/3/5 27/4/5 23/4/5 21/3/5 
f 27/4/4 28/1/4 24/1/4 23/4/4 
f 28/1/3 26/2/3 22/2/3 24/1/3 
f 30/2/7 29/3/7 25/3/7 26/2/7 
f 29/3/7 31/4/7 27/4/7 25/3/7 
f 31/4/7 32/1/7 28/1/7 27/4/7 
f 32/1/7 30/2/7 26/2/7 28/1/7 
f 5/2/8 6/3/8 29/3/8 30/2/8 
f 6/3/5 7/4/5 31/4/5 29/3/5 
f 7/4/9 8/1/9 32/1/9 31/4/9 
f 8/1/3 5/2/3 30/2/3 32/1/3 
# 30 polygons

#
# object Box018
#

v  -77.1316 46.4370 -217.4532
v  -54.1932 46.4372 -217.4550
v  -54.1898 46.4373 -173.8568
v  -77.1281 46.4371 -173.8550
v  -69.0722 8.8434 -209.7393
v  -69.0718 8.8434 -204.1664
v  -62.2484 8.8432 -204.1670
v  -62.2488 8.8432 -209.7399
v  -83.3169 43.2998 -218.4533
v  -83.3157 13.6683 -218.4532
v  -48.0067 13.6686 -218.4560
v  -48.0079 43.3001 -218.4561
v  -48.0027 13.6688 -167.8755
v  -48.0040 43.3003 -167.8756
v  -83.3117 13.6685 -167.8727
v  -83.3130 43.3000 -167.8728
v  -54.1932 43.3001 -217.4550
v  -77.1315 43.2999 -217.4532
v  -54.1897 43.3002 -173.8568
v  -77.1281 43.3000 -173.8550
v  -77.1269 13.6685 -173.8549
v  -77.1303 13.6684 -217.4531
v  -54.1885 13.6687 -173.8567
v  -54.1919 13.6686 -217.4549
v  -77.1268 10.5315 -173.8548
v  -77.1303 10.5313 -217.4531
v  -54.1885 10.5317 -173.8567
v  -54.1919 10.5315 -217.4549
v  -69.0717 10.5316 -204.1665
v  -69.0722 10.5315 -209.7393
v  -62.2483 10.5314 -204.1670
v  -62.2488 10.5313 -209.7399
# 32 vertices

vn -0.0000 1.0000 -0.0000
vn -0.0000 -1.0000 0.0000
vn -0.0001 -0.0000 -1.0000
vn 1.0000 0.0000 -0.0001
vn 0.0001 0.0000 1.0000
vn -1.0000 -0.0000 0.0001
vn 0.0000 -1.0000 0.0000
vn -1.0000 0.0000 0.0001
vn 1.0000 -0.0000 -0.0001
# 9 vertex normals

vt 1.0000 0.0000 0.0000
vt 0.0000 0.0000 0.0000
vt 0.0000 1.0000 0.0000
vt 1.0000 1.0000 0.0000
# 4 texture coords

g Box018
usemtl wire_113135006
s 2
f 36/8/10 35/7/10 34/6/10 33/5/10 
s 4
f 40/5/11 39/8/11 38/7/11 37/6/11 
s 8
f 44/5/12 43/8/12 42/7/12 41/6/12 
s 16
f 46/5/13 45/8/13 43/7/13 44/6/13 
s 32
f 48/5/14 47/8/14 45/7/14 46/6/14 
s 64
f 41/5/15 42/8/15 47/7/15 48/6/15 
s off
f 50/5/10 49/6/10 44/6/10 41/5/10 
f 49/6/10 51/7/10 46/7/10 44/6/10 
f 51/7/10 52/8/10 48/8/10 46/7/10 
f 52/8/10 50/5/10 41/5/10 48/8/10 
f 54/6/16 53/7/16 47/7/16 42/6/16 
f 53/7/16 55/8/16 45/8/16 47/7/16 
f 55/8/16 56/5/16 43/5/16 45/8/16 
f 56/5/16 54/6/16 42/6/16 43/5/16 
f 33/5/12 34/6/12 49/6/12 50/5/12 
f 34/6/13 35/7/13 51/7/13 49/6/13 
f 35/7/14 36/8/14 52/8/14 51/7/14 
f 36/8/15 33/5/15 50/5/15 52/8/15 
f 58/6/15 57/7/15 53/7/15 54/6/15 
f 57/7/14 59/8/14 55/8/14 53/7/14 
f 59/8/13 60/5/13 56/5/13 55/8/13 
f 60/5/12 58/6/12 54/6/12 56/5/12 
f 62/6/16 61/7/16 57/7/16 58/6/16 
f 61/7/16 63/8/16 59/8/16 57/7/16 
f 63/8/16 64/5/16 60/5/16 59/8/16 
f 64/5/16 62/6/16 58/6/16 60/5/16 
f 37/6/17 38/7/17 61/7/17 62/6/17 
f 38/7/14 39/8/14 63/8/14 61/7/14 
f 39/8/18 40/5/18 64/5/18 63/8/18 
f 40/5/12 37/6/12 62/6/12 64/5/12 
# 30 polygons

