# 3ds Max Wavefront OBJ Exporter v0.97b - (c)2007 guruware
# File Created: 08.11.2019 07:04:10

mtllib part_21_opt_2.mtl

#
# object Box017
#

v  -45.8071 59.8735 -104.5281
v  -45.8087 82.8118 -104.5281
v  -45.8087 82.8118 -148.1264
v  -45.8071 59.8735 -148.1264
v  -83.4014 67.9292 -112.2425
v  -83.4014 67.9292 -117.8154
v  -83.4021 74.7527 -117.8154
v  -83.4021 74.7526 -112.2425
v  -48.9438 53.6879 -103.5276
v  -78.5753 53.6868 -103.5276
v  -78.5777 88.9958 -103.5276
v  -48.9462 88.9969 -103.5276
v  -78.5777 88.9958 -154.1080
v  -48.9462 88.9969 -154.1080
v  -78.5752 53.6868 -154.1080
v  -48.9437 53.6879 -154.1080
v  -48.9458 82.8116 -104.5281
v  -48.9442 59.8732 -104.5281
v  -48.9458 82.8116 -148.1264
v  -48.9442 59.8732 -148.1264
v  -78.5757 59.8722 -148.1264
v  -78.5757 59.8722 -104.5282
v  -78.5773 82.8105 -148.1264
v  -78.5773 82.8105 -104.5282
v  -81.7128 59.8719 -148.1264
v  -81.7128 59.8719 -104.5282
v  -81.7144 82.8103 -148.1264
v  -81.7144 82.8103 -104.5282
v  -81.7132 67.9294 -117.8154
v  -81.7132 67.9294 -112.2425
v  -81.7139 74.7528 -117.8154
v  -81.7139 74.7528 -112.2425
# 32 vertices

vn 1.0000 0.0001 0.0000
vn -1.0000 -0.0001 -0.0000
vn -0.0000 -0.0000 1.0000
vn -0.0000 0.0000 1.0000
vn -0.0000 1.0000 0.0000
vn 0.0000 0.0000 -1.0000
vn 0.0000 -0.0000 -1.0000
vn 0.0000 -1.0000 0.0000
vn 0.0000 -1.0000 -0.0000
vn -0.0001 1.0000 0.0000
vn 0.0001 -1.0000 -0.0000
# 11 vertex normals

vt 1.0000 0.0000 0.0000
vt 0.0000 0.0000 0.0000
vt 0.0000 1.0000 0.0000
vt 1.0000 1.0000 0.0000
# 4 texture coords

g Box017
usemtl wire_113135006
s 2
f 4/4/1 3/3/1 2/2/1 1/1/1 
s 4
f 8/1/2 7/4/2 6/3/2 5/2/2 
s 8
f 12/1/4 11/4/3 10/3/3 9/2/3 
s 16
f 14/1/5 13/4/5 11/3/5 12/2/5 
s 32
f 16/1/7 15/4/6 13/3/6 14/2/6 
s 64
f 9/1/9 10/4/8 15/3/8 16/2/8 
s off
f 18/1/1 17/2/1 12/2/1 9/1/1 
f 17/2/1 19/3/1 14/3/1 12/2/1 
f 19/3/1 20/4/1 16/4/1 14/3/1 
f 20/4/1 18/1/1 9/1/1 16/4/1 
f 22/2/2 21/3/2 15/3/2 10/2/2 
f 21/3/2 23/4/2 13/4/2 15/3/2 
f 23/4/2 24/1/2 11/1/2 13/4/2 
f 24/1/2 22/2/2 10/2/2 11/1/2 
f 1/1/4 2/2/4 17/2/4 18/1/4 
f 2/2/10 3/3/10 19/3/10 17/2/10 
f 3/3/7 4/4/7 20/4/7 19/3/7 
f 4/4/11 1/1/11 18/1/11 20/4/11 
f 26/2/11 25/3/11 21/3/11 22/2/11 
f 25/3/6 27/4/6 23/4/6 21/3/6 
f 27/4/10 28/1/10 24/1/10 23/4/10 
f 28/1/3 26/2/3 22/2/3 24/1/3 
f 30/2/2 29/3/2 25/3/2 26/2/2 
f 29/3/2 31/4/2 27/4/2 25/3/2 
f 31/4/2 32/1/2 28/1/2 27/4/2 
f 32/1/2 30/2/2 26/2/2 28/1/2 
f 5/2/11 6/3/11 29/3/11 30/2/11 
f 6/3/6 7/4/6 31/4/6 29/3/6 
f 7/4/10 8/1/10 32/1/10 31/4/10 
f 8/1/3 5/2/3 30/2/3 32/1/3 
# 30 polygons

#
# object Box019
#

v  -49.2625 58.6405 -162.2523
v  -49.2625 85.0891 -162.2523
v  -81.9331 85.0891 -162.0424
v  -81.9331 58.6405 -162.0424
v  -49.1221 85.0891 -151.0522
v  -49.1221 58.6405 -151.0522
v  -81.7927 58.6405 -150.8423
v  -81.7927 85.0891 -150.8423
v  -42.2733 58.6405 -162.2972
v  -42.1329 58.6405 -151.0972
v  -42.1329 85.0891 -151.0972
v  -42.2733 85.0891 -162.2972
v  -88.9223 85.0891 -161.9975
v  -88.7819 85.0891 -150.7974
v  -88.7819 58.6405 -150.7974
v  -88.9223 58.6405 -161.9975
v  -43.0493 77.7603 -217.9735
v  -46.5510 77.7603 -217.9365
v  -46.5510 64.1648 -217.9365
v  -43.0493 64.1648 -217.9735
v  -88.8985 64.1648 -217.6819
v  -85.0809 64.1648 -217.7189
v  -85.0809 77.7603 -217.7189
v  -88.8985 77.7603 -217.6819
v  -42.4258 82.7348 -186.0226
v  -42.4258 59.1903 -186.0226
v  -46.6728 82.7348 -185.9776
v  -46.6728 59.1903 -185.9776
v  -84.4445 59.1903 -185.7677
v  -89.0747 59.1903 -185.7228
v  -84.4445 82.7348 -185.7677
v  -89.0747 82.7348 -185.7228
v  -43.0493 80.6688 -209.7431
v  -43.0493 61.2563 -209.7431
v  -46.5510 80.6688 -209.7061
v  -46.5510 61.2563 -209.7061
v  -85.0809 61.2563 -209.4885
v  -88.8985 61.2563 -209.4515
v  -85.0809 80.6688 -209.4885
v  -88.8985 80.6688 -209.4515
# 40 vertices

vn -0.0064 -0.0000 -1.0000
vn 0.0064 0.0000 1.0000
vn 0.0000 -1.0000 0.0000
vn 0.9999 -0.0000 -0.0125
vn -0.0000 1.0000 -0.0000
vn -0.9999 0.0000 0.0125
vn -0.0086 0.5756 -0.8177
vn -0.0086 0.5792 -0.8151
vn -0.0086 -0.5792 -0.8151
vn -0.0086 -0.5756 -0.8177
vn -0.0079 -0.5791 -0.8152
vn -0.0079 -0.5757 -0.8176
vn -0.0079 0.5757 -0.8176
vn -0.0079 0.5791 -0.8152
vn 1.0000 -0.0000 -0.0064
vn -0.0008 0.9951 -0.0988
vn -0.9941 0.0000 -0.1085
vn -0.0002 -0.9997 -0.0232
vn 0.9944 0.0000 -0.1053
vn -0.0008 0.9951 -0.0987
vn -1.0000 -0.0000 0.0064
vn 0.9997 -0.0000 -0.0263
vn -0.0009 0.9962 -0.0867
vn -1.0000 0.0000 -0.0051
vn -0.0009 -0.9962 -0.0867
vn -0.0008 -0.9962 -0.0867
vn 0.9996 0.0000 -0.0268
vn -0.0008 0.9962 -0.0867
vn -1.0000 -0.0000 -0.0074
vn -0.0035 0.9429 -0.3332
vn -0.0035 -0.9429 -0.3332
vn -0.0032 -0.9429 -0.3332
vn -0.0032 0.9429 -0.3332
vn 1.0000 -0.0000 -0.0000
vn -1.0000 0.0000 0.0000
vn 1.0000 0.0000 -0.0000
vn -1.0000 -0.0000 -0.0000
# 37 vertex normals

vt 0.1498 0.0000 0.0000
vt 0.1498 1.0000 0.0000
vt 0.8502 1.0000 0.0000
vt 0.8502 0.0000 0.0000
vt 0.0000 0.0000 0.0000
vt 0.0000 1.0000 0.0000
vt 1.0000 1.0000 0.0000
vt 1.0000 0.0000 0.0000
vt 0.0000 0.8502 0.0000
vt 0.1498 0.8502 0.0000
vt 0.1498 0.1498 0.0000
vt 0.0000 0.1498 0.0000
vt 1.0000 0.1498 0.0000
vt 0.8502 0.1498 0.0000
vt 0.8502 0.8502 0.0000
vt 1.0000 0.8502 0.0000
# 16 texture coords

g Box019
usemtl wire_177027088
s 2
f 36/8/12 35/7/12 34/6/12 33/5/12 
s 4
f 40/6/13 39/5/13 38/8/13 37/7/13 
s 8
f 39/6/14 36/5/14 33/8/14 38/7/14 
s 16
f 44/12/15 43/11/15 42/10/15 41/9/15 
s 32
f 37/6/16 34/5/16 35/8/16 40/7/16 
s 64
f 48/12/17 47/11/17 46/10/17 45/9/17 
s 2
f 52/16/21 51/15/20 50/14/19 49/13/18 
f 56/20/25 55/19/24 54/18/23 53/17/22 
s 4
f 37/7/13 38/8/13 42/12/13 43/11/13 
f 39/5/13 40/6/13 46/10/13 47/9/13 
s 8
f 33/8/14 41/12/14 42/11/14 38/7/14 
f 39/6/14 47/10/14 48/9/14 36/5/14 
s 32
f 40/7/16 35/8/16 45/12/16 46/11/16 
f 34/5/16 37/6/16 43/10/16 44/9/16 
s off
f 58/9/26 57/10/26 44/10/26 41/9/26 
f 57/10/27 59/6/27 34/6/27 44/10/27 
f 59/6/28 60/5/28 33/5/28 34/6/28 
f 60/5/29 58/9/29 41/9/29 33/5/29 
f 62/12/29 61/8/29 36/8/29 48/12/29 
f 61/8/30 63/7/30 35/7/30 36/8/30 
f 63/7/31 64/11/31 45/11/31 35/7/31 
f 64/11/32 62/12/32 48/12/32 45/11/32 
f 58/9/33 66/9/33 65/10/33 57/10/33 
f 65/10/34 67/6/34 59/6/34 57/10/34 
f 59/6/35 67/6/35 68/5/35 60/5/35 
f 68/5/36 66/9/36 58/9/36 60/5/36 
f 70/12/37 69/8/37 61/8/37 62/12/37 
f 61/8/38 69/8/38 71/7/38 63/7/38 
f 71/7/39 72/11/39 64/11/39 63/7/39 
f 64/11/40 72/11/40 70/12/40 62/12/40 
s 2
f 49/13/18 50/14/19 67/6/41 65/10/41 
f 51/15/20 52/16/21 66/9/42 68/5/42 
f 53/17/22 54/18/23 69/8/43 70/12/43 
f 55/19/24 56/20/25 72/11/44 71/7/44 
s off
f 65/10/45 66/9/45 52/16/45 49/13/45 
f 68/5/46 67/6/46 50/14/46 51/15/46 
f 71/7/47 69/8/47 54/18/47 55/19/47 
f 70/12/48 72/11/48 56/20/48 53/17/48 
# 38 polygons

