# 3ds Max Wavefront OBJ Exporter v0.97b - (c)2007 guruware
# File Created: 08.11.2019 07:10:02

mtllib part_22_opt_2.mtl

#
# object Box004
#

v  -152.4306 46.7910 -25.7594
v  -129.4923 46.7894 -25.7594
v  -129.4923 46.7894 -69.3577
v  -152.4306 46.7910 -69.3577
v  -144.3749 9.1967 -33.4738
v  -144.3749 9.1967 -39.0467
v  -137.5515 9.1960 -39.0467
v  -137.5515 9.1960 -33.4738
v  -158.6162 43.6543 -24.7589
v  -158.6173 14.0228 -24.7589
v  -123.3083 14.0204 -24.7589
v  -123.3072 43.6518 -24.7589
v  -123.3083 14.0204 -75.3393
v  -123.3072 43.6519 -75.3393
v  -158.6173 14.0229 -75.3393
v  -158.6162 43.6543 -75.3393
v  -129.4925 43.6523 -25.7594
v  -152.4309 43.6539 -25.7594
v  -129.4925 43.6523 -69.3577
v  -152.4309 43.6539 -69.3577
v  -152.4320 14.0224 -69.3577
v  -152.4320 14.0224 -25.7595
v  -129.4936 14.0208 -69.3577
v  -129.4936 14.0208 -25.7595
v  -152.4322 10.8853 -69.3577
v  -152.4322 10.8853 -25.7595
v  -129.4938 10.8837 -69.3577
v  -129.4938 10.8837 -25.7595
v  -144.3747 10.8849 -39.0467
v  -144.3747 10.8849 -33.4738
v  -137.5513 10.8842 -39.0467
v  -137.5513 10.8841 -33.4738
# 32 vertices

vn 0.0001 1.0000 0.0000
vn -0.0001 -1.0000 -0.0000
vn -0.0000 -0.0000 1.0000
vn 1.0000 -0.0000 0.0000
vn 0.0000 0.0000 -1.0000
vn -1.0000 0.0000 0.0000
vn -1.0000 0.0000 -0.0000
vn 1.0000 -0.0001 0.0000
vn -1.0000 0.0001 -0.0000
# 9 vertex normals

vt 1.0000 0.0000 0.0000
vt 0.0000 0.0000 0.0000
vt 0.0000 1.0000 0.0000
vt 1.0000 1.0000 0.0000
# 4 texture coords

g Box004
usemtl wire_113135006
s 2
f 1/1/1 2/2/1 3/3/1 4/4/1 
s 4
f 5/2/2 6/3/2 7/4/2 8/1/2 
s 8
f 9/2/3 10/3/3 11/4/3 12/1/3 
s 16
f 12/2/4 11/3/4 13/4/4 14/1/4 
s 32
f 14/2/5 13/3/5 15/4/5 16/1/5 
s 64
f 16/2/6 15/3/6 10/4/6 9/1/7 
s off
f 9/1/1 12/2/1 17/2/1 18/1/1 
f 12/2/1 14/3/1 19/3/1 17/2/1 
f 14/3/1 16/4/1 20/4/1 19/3/1 
f 16/4/1 9/1/1 18/1/1 20/4/1 
f 10/2/2 15/3/2 21/3/2 22/2/2 
f 15/3/2 13/4/2 23/4/2 21/3/2 
f 13/4/2 11/1/2 24/1/2 23/4/2 
f 11/1/2 10/2/2 22/2/2 24/1/2 
f 18/1/3 17/2/3 2/2/3 1/1/3 
f 17/2/8 19/3/8 3/3/8 2/2/8 
f 19/3/5 20/4/5 4/4/5 3/3/5 
f 20/4/9 18/1/9 1/1/9 4/4/9 
f 22/2/9 21/3/9 25/3/9 26/2/9 
f 21/3/5 23/4/5 27/4/5 25/3/5 
f 23/4/8 24/1/8 28/1/8 27/4/8 
f 24/1/3 22/2/3 26/2/3 28/1/3 
f 26/2/2 25/3/2 29/3/2 30/2/2 
f 25/3/2 27/4/2 31/4/2 29/3/2 
f 27/4/2 28/1/2 32/1/2 31/4/2 
f 28/1/2 26/2/2 30/2/2 32/1/2 
f 30/2/9 29/3/9 6/3/9 5/2/9 
f 29/3/5 31/4/5 7/4/5 6/3/5 
f 31/4/8 32/1/8 8/1/8 7/4/8 
f 32/1/3 30/2/3 5/2/3 8/1/3 
# 30 polygons

#
# object Box005
#

v  -159.8050 59.8735 -25.9417
v  -159.8034 82.8118 -25.9417
v  -159.8034 82.8118 -69.5399
v  -159.8050 59.8735 -69.5399
v  -122.2107 67.9292 -33.6561
v  -122.2108 67.9292 -39.2290
v  -122.2100 74.7527 -39.2290
v  -122.2100 74.7526 -33.6561
v  -156.6683 53.6879 -24.9411
v  -127.0368 53.6868 -24.9411
v  -127.0344 88.9958 -24.9411
v  -156.6659 88.9969 -24.9411
v  -127.0344 88.9958 -75.5216
v  -156.6659 88.9969 -75.5216
v  -127.0369 53.6868 -75.5216
v  -156.6684 53.6879 -75.5216
v  -156.6663 82.8116 -25.9417
v  -156.6679 59.8732 -25.9417
v  -156.6663 82.8116 -69.5399
v  -156.6679 59.8732 -69.5399
v  -127.0364 59.8722 -69.5399
v  -127.0364 59.8722 -25.9417
v  -127.0348 82.8105 -69.5399
v  -127.0348 82.8105 -25.9417
v  -123.8994 59.8719 -69.5399
v  -123.8993 59.8719 -25.9417
v  -123.8978 82.8103 -69.5399
v  -123.8977 82.8103 -25.9417
v  -123.8989 67.9294 -39.2290
v  -123.8989 67.9294 -33.6561
v  -123.8982 74.7528 -39.2290
v  -123.8982 74.7528 -33.6561
# 32 vertices

vn -1.0000 0.0001 0.0000
vn 1.0000 -0.0001 -0.0000
vn 0.0000 -0.0000 1.0000
vn 0.0000 1.0000 0.0000
vn -0.0000 0.0000 -1.0000
vn -0.0000 -1.0000 0.0000
vn -0.0000 -1.0000 -0.0000
vn 0.0001 1.0000 0.0000
vn -0.0001 -1.0000 -0.0000
# 9 vertex normals

vt 1.0000 0.0000 0.0000
vt 0.0000 0.0000 0.0000
vt 0.0000 1.0000 0.0000
vt 1.0000 1.0000 0.0000
# 4 texture coords

g Box005
usemtl wire_113135006
s 2
f 33/5/10 34/6/10 35/7/10 36/8/10 
s 4
f 37/6/11 38/7/11 39/8/11 40/5/11 
s 8
f 41/6/12 42/7/12 43/8/12 44/5/12 
s 16
f 44/6/13 43/7/13 45/8/13 46/5/13 
s 32
f 46/6/14 45/7/14 47/8/14 48/5/14 
s 64
f 48/6/15 47/7/15 42/8/15 41/5/16 
s off
f 41/5/10 44/6/10 49/6/10 50/5/10 
f 44/6/10 46/7/10 51/7/10 49/6/10 
f 46/7/10 48/8/10 52/8/10 51/7/10 
f 48/8/10 41/5/10 50/5/10 52/8/10 
f 42/6/11 47/7/11 53/7/11 54/6/11 
f 47/7/11 45/8/11 55/8/11 53/7/11 
f 45/8/11 43/5/11 56/5/11 55/8/11 
f 43/5/11 42/6/11 54/6/11 56/5/11 
f 50/5/12 49/6/12 34/6/12 33/5/12 
f 49/6/17 51/7/17 35/7/17 34/6/17 
f 51/7/14 52/8/14 36/8/14 35/7/14 
f 52/8/18 50/5/18 33/5/18 36/8/18 
f 54/6/18 53/7/18 57/7/18 58/6/18 
f 53/7/14 55/8/14 59/8/14 57/7/14 
f 55/8/17 56/5/17 60/5/17 59/8/17 
f 56/5/12 54/6/12 58/6/12 60/5/12 
f 58/6/11 57/7/11 61/7/11 62/6/11 
f 57/7/11 59/8/11 63/8/11 61/7/11 
f 59/8/11 60/5/11 64/5/11 63/8/11 
f 60/5/11 58/6/11 62/6/11 64/5/11 
f 62/6/18 61/7/18 38/7/18 37/6/18 
f 61/7/14 63/8/14 39/8/14 38/7/14 
f 63/8/17 64/5/17 40/5/17 39/8/17 
f 64/5/12 62/6/12 37/6/12 40/5/12 
# 30 polygons

