# 3ds Max Wavefront OBJ Exporter v0.97b - (c)2007 guruware
# File Created: 07.11.2019 22:34:44

mtllib part_14_opt.mtl

#
# object Cut_Extrude3_DC_Shell
#

v  -127.5957 55.2645 -232.6959
v  -150.5952 55.2654 -232.8399
v  -150.6773 52.5736 -219.7388
v  -150.5952 94.5454 -232.5937
v  -127.5957 94.5445 -232.4498
v  -150.6773 97.0728 -219.4600
v  -150.5647 100.6855 -237.4373
v  -127.7595 100.4900 -206.2446
v  -127.5651 100.6846 -237.2934
v  -127.5432 97.2066 -240.8152
v  -150.5428 52.7084 -241.2380
v  -150.5428 97.2075 -240.9591
v  -150.5647 88.7199 -237.5123
v  -147.8072 74.1934 -237.5861
v  -130.3226 74.1928 -237.4767
v  -130.3007 75.6996 -240.9672
v  -150.5647 61.1521 -237.6851
v  -135.1581 100.5005 -207.9105
v  -137.6140 97.0161 -210.4193
v  -134.8593 96.9904 -206.3110
v  -140.8532 100.5162 -210.4176
v  -143.3401 97.0009 -207.9837
v  -140.0328 97.0177 -210.6699
v  -134.9520 73.3377 -241.0111
v  -135.9537 71.8242 -237.5267
v  -134.6650 74.9354 -237.4992
v  -127.5651 49.1856 -237.6161
v  -150.7590 48.9919 -206.7113
v  -150.5647 49.1865 -237.7601
v  -144.1335 49.0318 -213.0691
v  -146.5120 48.9964 -207.4272
v  -131.1786 48.9402 -198.4570
v  -147.4417 48.9408 -198.5588
v  -136.8746 100.4673 -202.6189
v  -136.1675 96.9709 -203.2079
v  -139.2868 96.9630 -201.9387
v  -143.3604 100.4805 -204.7226
v  -142.3899 96.9712 -203.2468
v  -143.6591 96.9907 -206.3660
v  -150.5816 56.6150 -235.0094
v  -127.5651 61.1512 -237.5411
v  -127.5432 52.7075 -241.0940
v  -150.5816 93.2231 -234.7800
v  -127.5651 88.7190 -237.3684
v  -137.6140 49.0171 -210.7201
v  -136.1286 52.5108 -209.7090
v  -139.2317 52.5190 -211.0172
v  -140.8532 49.0172 -210.7403
v  -141.6439 52.5146 -210.3151
v  -142.9269 49.0067 -209.0700
v  -135.1784 52.4811 -204.9722
v  -134.8593 48.9913 -206.6118
v  -136.8746 48.9683 -202.9416
v  -140.9044 52.4658 -202.5366
v  -140.0869 48.9644 -202.3179
v  -141.6900 48.9685 -202.9717
v  -147.4417 96.9399 -198.2580
v  -147.4417 100.4398 -198.2361
v  -150.5801 100.4778 -204.2949
v  -142.1761 71.8245 -237.5657
v  -140.6626 70.8666 -241.0623
v  -143.1340 73.3381 -241.0623
v  -143.3914 74.1351 -237.5588
v  -143.1340 76.5772 -241.0420
v  -142.7476 77.3434 -237.5347
v  -140.0471 100.4450 -199.0640
v  -148.9239 100.4514 -200.0842
v  -142.9570 52.4765 -204.2328
v  -131.1786 100.4392 -198.1343
v  -128.5934 48.9645 -202.3394
v  -127.7595 52.4910 -206.5454
v  -128.5934 52.4645 -202.3175
v  -129.6734 48.9517 -200.2864
v  -131.1786 52.4401 -198.4351
v  -135.0932 48.9243 -195.9207
v  -128.5934 96.9636 -202.0387
v  -128.5934 100.4635 -202.0167
v  -129.6734 96.9507 -199.9856
v  -135.0932 96.9234 -195.6199
v  -143.5592 96.9237 -195.6729
v  -139.3312 96.9185 -194.8390
v  -139.3312 100.4184 -194.8170
v  -143.5592 100.4236 -195.6509
v  -135.1784 100.4802 -204.6714
v  -134.9520 76.5769 -240.9908
v  -134.9739 76.5550 -237.4910
v  -137.4453 79.0265 -237.4910
v  -139.3312 52.4194 -195.1178
v  -139.3312 48.9194 -195.1397
v  -135.0932 52.4242 -195.8987
v  -135.0932 100.4233 -195.5979
v  -136.8285 100.5135 -209.9841
v  -142.9269 100.5057 -208.7473
v  -143.6591 52.4916 -206.6449
v  -148.9239 48.9524 -200.4069
v  -149.9781 52.4653 -202.4514
v  -143.5592 48.9246 -195.9736
v  -147.4417 52.4408 -198.5368
v  -137.6653 52.4657 -202.5163
v  -127.5450 51.3156 -240.8148
v  -150.5492 50.2271 -240.2284
v  -135.9318 78.0686 -240.9876
v  -139.0430 79.3574 -240.9990
v  -140.6626 79.0485 -241.0111
v  -139.0649 79.3355 -237.4991
v  -140.0869 100.4634 -201.9952
v  -139.0649 70.5356 -237.5543
v  -130.5216 52.4864 -205.8202
v  -148.0062 52.4871 -205.9297
v  -148.0062 96.9862 -205.6508
v  -127.6778 97.0719 -219.3160
v  -130.5216 96.9855 -205.5414
v  -139.9563 97.0360 -213.6004
v  -138.4714 52.5369 -213.8700
v  -150.5522 100.0818 -239.4243
v  -127.5496 99.6750 -239.7746
v  -143.5592 52.4246 -195.9517
v  -144.8740 97.0328 -213.0805
v  -143.9981 100.5297 -212.5777
v  -145.9305 100.5262 -212.0152
v  -138.0886 83.3218 -237.4680
v  -139.0430 84.0073 -240.9699
v  -138.0105 82.7662 -240.9712
v  -140.1878 49.0392 -214.2586
v  -140.2591 52.5416 -214.6236
v  -139.2157 52.5350 -213.5671
v  -138.3339 100.5370 -213.7362
v  -138.1592 97.0406 -214.3316
v  -139.2157 97.0341 -213.2882
v  -132.5932 52.5242 -211.8460
v  -132.5171 49.0267 -212.2540
v  -133.9597 49.0206 -211.2867
v  -140.0930 66.9577 -241.0833
v  -140.0412 67.3222 -237.5805
v  -139.0649 65.8857 -237.5834
v  -133.4533 96.9484 -199.6129
v  -134.6879 100.4548 -200.6311
v  -133.8354 100.4483 -199.5933
v  -139.3159 48.9348 -197.5897
v  -140.3593 52.4413 -198.6243
v  -138.2593 52.4412 -198.6111
v  -133.6313 52.4623 -201.9753
v  -134.6879 48.9559 -200.9538
v  -133.4404 48.9623 -201.9785
v  -132.3094 100.4902 -206.2731
v  -131.4440 96.9967 -207.3221
v  -130.2094 100.4901 -206.2599
v  -138.8166 97.0468 -215.3120
v  -139.3938 100.5471 -215.3499
v  -140.2591 97.0407 -214.3448
v  -144.3005 52.5326 -213.1846
v  -144.6831 49.0336 -213.3626
v  -143.8306 49.0271 -212.3248
v  -138.2593 96.9404 -198.3322
v  -138.5622 100.4450 -199.0547
v  -140.3593 96.9405 -198.3454
v  -139.9437 82.3609 -237.4857
v  -140.0930 82.9574 -240.9830
v  -139.0649 83.9854 -237.4700
v  -134.6117 100.4573 -201.0171
v  -134.6879 96.9549 -200.6530
v  -133.4404 96.9613 -201.6777
v  -134.6171 52.5267 -212.2452
v  -133.9475 49.0328 -213.2392
v  -133.5605 52.5332 -213.2885
v  -134.3049 100.5304 -212.6849
v  -131.9972 100.4948 -207.0136
v  -134.6171 97.0258 -211.9663
v  -134.3142 100.5211 -211.2000
v  -132.5171 97.0257 -211.9532
v  -132.8200 97.0304 -212.6975
v  -132.5171 100.5257 -211.9312
v  -134.6171 100.5257 -211.9444
v  -132.0975 74.7442 -237.4843
v  -132.0194 75.3437 -240.9802
v  -131.0650 75.9852 -237.4701
v  -146.2091 96.9908 -206.3820
v  -146.5120 100.4954 -207.1044
v  -147.4437 96.9973 -207.4222
v  -139.0116 49.0481 -215.6702
v  -139.2026 52.5481 -215.6670
v  -145.2732 97.0201 -211.0567
v  -144.6960 100.5197 -210.9750
v  -143.8306 97.0262 -212.0240
v  -138.1861 67.5102 -237.5677
v  -138.0667 66.5711 -241.0730
v  -144.5002 49.0210 -211.3527
v  -144.0053 52.5235 -211.7294
v  -139.0649 81.8854 -237.4832
v  -146.0666 74.5713 -241.0730
v  -146.0148 74.9358 -237.5702
v  -147.0428 76.0078 -241.0701
v  -130.4905 75.8140 -237.4675
v  -130.0669 74.5706 -240.9728
v  -131.0650 73.8853 -237.4832
v  -145.9301 48.9539 -200.6377
v  -144.9580 52.4496 -199.9462
v  -143.9014 48.9562 -201.0115
v  -148.0928 74.9578 -241.0832
v  -147.0428 73.9078 -241.0832
v  -148.1415 48.9882 -206.1203
v  -146.8787 52.4856 -205.6888
v  -146.2091 48.9918 -206.6828
v  -139.6897 52.4474 -199.5963
v  -140.3593 48.9414 -198.6462
v  -138.4341 100.4367 -197.7368
v  -140.2880 96.9380 -197.9585
v  -140.3593 100.4404 -198.3235
v  -147.8281 52.4973 -207.5498
v  -147.4437 48.9983 -207.7230
v  -146.5120 52.4964 -207.4052
v  -145.8338 96.9518 -200.1482
v  -144.7668 100.4488 -199.6617
v  -143.9014 96.9553 -200.7107
v  -133.4533 48.9493 -199.9136
v  -134.0305 52.4496 -199.9515
v  -132.5879 48.9558 -200.9407
v  -145.5204 52.4617 -201.8785
v  -144.9448 48.9628 -202.0680
v  -143.9014 52.4562 -200.9896
v  -131.6398 48.9973 -207.5679
v  -130.8668 52.4972 -207.5411
v  -132.3094 52.4911 -206.5739
v  -147.4566 100.4843 -205.3354
v  -147.4566 96.9844 -205.3573
v  -148.3091 96.9909 -206.3952
v  -130.5216 48.9865 -205.8421
v  -131.8394 52.4856 -205.6921
v  -130.2094 52.4911 -206.5607
v  -144.5588 96.9614 -201.6911
v  -145.6892 100.4599 -201.4424
v  -146.0014 96.9554 -200.7238
v  -147.0647 73.8859 -237.5834
v  -131.0432 76.0071 -240.9699
v  -146.0014 52.4562 -201.0027
v  -131.2660 100.4836 -205.2166
v  -130.3842 96.9866 -205.7084
v  -132.3094 96.9903 -206.2950
v  -148.3091 52.4918 -206.6740
v  -147.0647 75.9858 -237.5702
v  -143.9014 100.4552 -200.6888
v  -138.7402 96.9349 -197.4564
v  -138.7292 48.9468 -199.5148
v  -137.4234 70.8664 -241.0421
v  -134.6879 52.4558 -200.9319
v  -146.0014 48.9563 -201.0246
v  -148.3091 48.9918 -206.6959
v  -146.0014 100.4553 -200.7019
v  -130.2094 48.9911 -206.5827
v  -132.3094 48.9912 -206.5958
v  -146.2091 100.4907 -206.3601
v  -138.4714 100.5359 -213.5692
v  -133.0578 100.4603 -201.4998
v  -132.5879 96.9548 -200.6399
v  -133.7646 52.5202 -211.2074
v  -134.6171 49.0267 -212.2671
v  -149.9781 96.9644 -202.1725
v  -134.4423 97.0294 -212.5398
v  -127.5564 49.4822 -239.0044
v  -131.1786 96.9393 -198.1562
v  -127.6778 52.5727 -219.5949
v  -143.3604 48.9815 -205.0453
v  -150.7590 100.4909 -206.3885
v  -132.5879 100.4548 -200.6180
v  -132.6918 100.5221 -211.3578
v  -145.9306 49.0272 -212.3379
v  -145.4606 52.5216 -211.4342
v  -145.2610 52.5332 -213.2881
v  -148.2329 100.4932 -206.7592
v  -127.7595 96.9901 -206.2665
v  -127.5496 50.2262 -240.0845
v  -127.7595 48.9910 -206.5673
v  -150.5492 99.6759 -239.9185
v  -150.7590 52.4919 -206.6893
v  -138.8288 49.0355 -213.6603
v  -138.1592 52.5415 -214.6105
v  -139.6018 100.5345 -213.3424
v  -139.8784 100.4459 -199.1993
v  -131.9220 74.3826 -240.9856
v  -138.4684 67.8364 -241.0676
v  -145.9305 97.0263 -212.0371
v  -145.7630 100.5226 -211.4396
v  -132.8200 49.0313 -212.9983
v  -132.5171 52.5266 -212.2320
v  -143.6591 100.4906 -206.3441
v  -139.4295 67.9339 -241.0730
v  -139.0649 67.9857 -237.5703
v  -139.6176 82.0785 -240.9855
v  -146.2091 52.4917 -206.6609
# 289 vertices

vn -0.0013 0.9756 0.2197
vn -0.0010 0.9853 0.1709
vn -0.0010 -0.9873 0.1586
vn -0.0013 -0.9782 0.2075
vn 0.0000 1.0000 0.0063
vn 0.0063 0.0063 -1.0000
vn -0.0063 -0.0063 1.0000
vn -0.8404 -0.0034 0.5419
vn -0.9321 -0.0023 0.3623
vn 0.5420 -0.0053 0.8404
vn 0.7027 -0.0045 0.7115
vn -0.8370 0.5472 -0.0018
vn -0.9298 0.3681 -0.0035
vn -0.0000 -1.0000 -0.0063
vn -0.5420 0.0053 -0.8404
vn -0.3623 0.0058 -0.9321
vn 0.8404 0.0034 -0.5419
vn 0.9321 0.0023 -0.3623
vn -0.0053 0.5186 0.8550
vn -0.0061 0.2055 0.9786
vn -0.0053 -0.5293 0.8484
vn -0.0061 -0.2177 0.9760
vn -0.3739 -0.0058 0.9274
vn -0.5524 -0.0052 0.8335
vn -0.8336 0.0035 -0.5524
vn -0.7027 0.0045 -0.7115
vn 0.3739 0.0058 -0.9274
vn 0.5524 0.0052 -0.8335
vn 0.7071 0.7071 0.0089
vn 0.8370 0.5472 0.0087
vn 1.0000 -0.0000 0.0063
vn 0.9833 -0.1820 0.0050
vn 0.7115 0.0044 -0.7027
vn 0.9821 -0.0012 0.1881
vn 0.9275 -0.0023 0.3739
vn -0.7115 -0.0044 0.7027
vn -0.1881 -0.0062 0.9821
vn -0.9833 0.1820 -0.0050
vn -1.0000 0.0000 -0.0063
vn -0.8370 -0.5472 -0.0087
vn -0.7071 -0.7071 -0.0089
vn 0.1758 -0.0062 0.9844
vn 0.3623 -0.0058 0.9321
vn 0.8336 -0.0035 0.5524
vn -0.9844 -0.0011 0.1758
vn 0.0052 -0.5615 -0.8275
vn 0.0057 -0.3914 -0.9202
vn -0.5472 -0.8370 -0.0087
vn -0.3681 -0.9298 -0.0081
vn 0.5472 -0.8370 -0.0018
vn 0.3681 -0.9298 -0.0035
vn 0.8370 -0.5472 0.0018
vn 0.7071 -0.7071 -0.0000
vn 0.1820 0.9833 0.0073
vn 0.3681 0.9298 0.0081
vn 0.0044 0.7115 -0.7026
vn 0.0052 0.5718 -0.8204
vn 0.0035 0.8275 -0.5614
vn 0.0025 0.9202 -0.3914
vn 0.9298 0.3681 0.0081
vn 0.1881 0.0062 -0.9821
vn 0.9298 -0.3681 0.0035
vn -0.1758 0.0062 -0.9844
vn -0.7071 0.7071 0.0000
vn -0.9275 0.0023 -0.3739
vn -0.9821 0.0012 -0.1881
vn -0.9833 -0.1819 -0.0073
vn -0.1820 0.9833 0.0050
vn -0.3681 0.9298 0.0035
vn 0.9833 0.1819 0.0073
vn 0.0025 -0.9152 -0.4029
vn 0.0013 -0.9775 -0.2110
vn 0.9844 0.0011 -0.1758
vn 0.0044 -0.7027 -0.7115
vn 0.5472 0.8370 0.0087
vn -0.0026 0.9060 0.4232
vn -0.0040 0.7694 0.6388
vn -0.0040 -0.7773 0.6291
vn -0.0026 -0.9113 0.4118
vn -0.9298 -0.3681 -0.0081
# 80 vertex normals

g Cut_Extrude3_DC_Shell
usemtl wire_178178178
s 1
f 1//1 2//2 3//1 
f 4//3 5//4 6//4 
f 7//5 8//5 9//5 
f 10//6 11//6 12//6 
f 13//7 14//7 15//7 
f 11//6 10//6 16//6 
f 14//7 13//7 17//7 
f 18//8 19//8 20//9 
f 21//10 22//11 23//10 
f 24//12 25//12 26//13 
f 27//14 28//14 29//14 
f 27//14 30//14 28//14 
f 31//14 32//14 33//14 
f 34//15 35//15 36//16 
f 37//17 38//17 39//18 
f 40//19 1//19 41//20 
f 16//6 10//6 42//6 
f 11//6 16//6 42//6 
f 5//21 43//21 44//22 
f 45//23 46//24 47//23 
f 48//10 49//10 50//11 
f 51//25 52//25 53//26 
f 54//27 55//27 56//28 
f 57//8 58//8 59//9 
f 60//29 61//29 62//30 
f 63//31 64//31 65//32 
f 66//5 7//5 67//5 
f 58//5 66//5 67//5 
f 54//28 56//33 68//33 
f 66//5 58//5 69//5 
f 70//34 71//34 72//35 
f 73//11 74//10 75//10 
f 76//34 8//34 77//35 
f 78//11 69//10 79//10 
f 80//24 58//36 57//36 
f 81//37 82//37 83//23 
f 84//26 35//15 34//15 
f 24//38 26//39 85//39 
f 85//40 86//40 87//41 
f 46//9 45//8 52//9 
f 75//42 88//7 89//7 
f 75//10 74//10 90//43 
f 79//10 69//10 91//43 
f 79//42 82//7 81//7 
f 21//37 19//37 92//23 
f 93//11 22//11 21//10 
f 50//44 49//11 94//44 
f 95//9 96//45 28//45 
f 97//24 98//36 95//36 
f 51//26 53//15 99//15 
f 100//46 101//46 11//47 
f 102//48 87//49 103//49 
f 65//50 104//51 105//51 
f 65//52 64//52 104//53 
f 106//27 38//28 37//28 
f 107//54 61//54 60//55 
f 15//7 41//7 44//7 
f 15//7 44//7 13//7 
f 108//5 3//5 109//5 
f 110//14 111//14 112//14 
f 113//14 111//14 110//14 
f 114//5 3//5 108//5 
f 115//56 116//56 12//57 
f 116//58 115//58 9//59 
f 97//24 117//24 98//36 
f 89//37 88//37 117//23 
f 118//7 119//37 120//7 
f 121//48 122//48 123//41 
f 124//28 125//28 126//27 
f 127//15 128//15 129//16 
f 130//25 131//25 132//26 
f 133//60 134//60 135//30 
f 136//33 137//33 138//28 
f 139//61 140//27 141//61 
f 142//43 143//43 144//42 
f 145//43 146//42 147//42 
f 148//10 149//10 150//11 
f 151//24 152//24 153//36 
f 154//23 155//37 156//37 
f 157//62 158//62 159//52 
f 160//44 161//44 162//11 
f 163//10 164//43 165//43 
f 7//5 166//5 8//5 
f 167//5 66//5 69//5 
f 168//6 169//6 170//63 
f 171//7 172//7 173//42 
f 174//62 175//52 176//52 
f 177//23 178//23 179//37 
f 125//10 180//43 181//43 
f 182//16 183//15 184//15 
f 185//38 186//13 135//13 
f 187//15 188//26 153//26 
f 121//12 123//64 189//64 
f 190//40 191//41 192//41 
f 193//12 194//64 195//64 
f 196//61 197//6 198//6 
f 199//30 14//29 200//29 
f 201//15 202//26 203//26 
f 204//42 205//7 141//7 
f 206//28 207//33 208//33 
f 209//43 210//42 211//42 
f 212//61 213//6 214//6 
f 215//65 216//66 217//66 
f 218//36 219//8 220//8 
f 221//43 222//43 223//10 
f 224//17 225//17 226//18 
f 227//26 228//26 229//25 
f 230//11 231//11 232//44 
f 190//12 233//12 191//13 
f 193//67 234//67 194//39 
f 196//28 235//28 197//27 
f 236//63 237//63 238//6 
f 201//61 239//61 202//6 
f 199//53 240//53 14//52 
f 230//23 241//24 231//23 
f 206//27 242//27 207//28 
f 141//7 205//7 243//37 
f 244//64 25//12 24//12 
f 216//28 215//33 245//33 
f 218//10 246//11 219//10 
f 209//11 247//11 210//10 
f 212//17 248//17 213//33 
f 119//23 118//23 184//24 
f 249//24 222//23 221//23 
f 21//7 23//7 19//37 
f 250//33 228//28 227//28 
f 106//61 36//61 38//27 
f 251//16 225//63 224//63 
f 147//15 237//16 236//16 
f 45//37 47//7 48//7 
f 84//66 20//66 35//65 
f 244//68 107//68 25//69 
f 99//16 53//16 55//63 
f 99//63 55//6 54//6 
f 63//70 62//70 64//31 
f 252//5 7//5 66//5 
f 252//5 66//5 167//5 
f 14//7 41//7 15//7 
f 14//7 17//7 41//7 
f 73//44 72//44 74//11 
f 78//44 77//44 69//11 
f 80//24 83//24 58//36 
f 95//8 98//8 96//9 
f 253//9 162//8 254//9 
f 70//35 72//44 73//44 
f 76//35 77//44 78//44 
f 255//17 132//17 256//18 
f 57//8 59//9 257//9 
f 48//42 47//42 49//43 
f 89//37 117//23 97//23 
f 81//37 83//23 80//23 
f 171//10 173//10 258//11 
f 79//42 91//42 82//7 
f 75//42 90//42 88//7 
f 60//29 62//30 63//30 
f 101//71 259//71 29//72 
f 30//14 27//14 227//14 
f 30//14 227//14 31//14 
f 112//14 111//14 260//14 
f 110//14 112//14 260//14 
f 6//14 110//14 57//14 
f 110//14 260//14 57//14 
f 31//14 227//14 32//14 
f 109//5 3//5 98//5 
f 108//5 109//5 98//5 
f 108//5 98//5 74//5 
f 261//5 108//5 74//5 
f 68//18 262//73 94//73 
f 257//39 59//45 263//39 
f 136//25 138//25 264//65 
f 34//16 36//63 106//63 
f 170//63 169//63 265//16 
f 266//33 267//28 187//28 
f 152//11 268//11 266//44 
f 179//10 178//10 269//11 
f 187//15 267//15 188//26 
f 259//74 101//74 100//46 
f 149//9 148//8 128//9 
f 92//24 19//36 18//36 
f 44//31 116//31 270//31 
f 116//31 44//31 41//31 
f 116//31 41//31 271//31 
f 271//31 41//31 272//31 
f 17//39 273//39 101//39 
f 17//39 101//39 274//39 
f 13//39 273//39 17//39 
f 273//39 13//39 263//39 
f 160//11 162//10 253//10 
f 275//25 126//25 276//65 
f 277//17 129//17 150//18 
f 156//43 155//42 278//43 
f 152//37 151//37 268//7 
f 279//30 174//30 195//29 
f 181//24 180//24 276//36 
f 185//67 280//67 186//39 
f 281//17 282//33 182//33 
f 165//24 283//24 284//36 
f 285//35 22//44 93//44 
f 286//53 287//53 134//52 
f 242//25 206//65 154//65 
f 288//75 157//29 189//75 
f 2//76 1//76 40//77 
f 43//78 5//79 4//79 
f 124//61 126//6 275//6 
f 85//40 87//41 102//41 
f 165//7 164//7 283//37 
f 32//14 227//14 73//14 
f 227//14 27//14 73//14 
f 130//26 132//15 255//15 
f 127//63 129//6 277//6 
f 182//27 282//27 183//61 
f 179//44 269//35 226//35 
f 261//5 114//5 108//5 
f 3//5 114//5 261//5 
f 6//14 113//14 110//14 
f 111//14 113//14 6//14 
f 286//52 134//62 133//62 
f 158//30 157//30 288//29 
f 174//70 279//70 175//31 
f 142//8 144//8 217//9 
f 85//67 26//67 86//80 
f 166//5 7//5 252//5 
f 166//5 252//5 167//5 
f 167//5 69//5 8//5 
f 8//5 166//5 167//5 
f 28//14 30//14 31//14 
f 28//14 31//14 33//14 
f 280//48 185//41 287//48 
f 68//33 56//33 262//17 
f 211//9 210//45 289//45 
# 0 polygons - 230 triangles

