# 3ds Max Wavefront OBJ Exporter v0.97b - (c)2007 guruware
# File Created: 08.11.2019 07:17:32

mtllib part_10_opt_2.mtl

#
# object Box046
#

v  -238.9773 51.2710 -458.2684
v  -238.9783 72.8410 -458.2098
v  -274.4313 72.8410 -458.9870
v  -274.4304 51.2710 -459.0456
v  -243.0461 54.9931 -431.3557
v  -255.7108 54.9931 -431.7005
v  -255.7114 69.1027 -431.6621
v  -243.0467 69.1027 -431.3174
v  -239.5143 51.2710 -434.2607
v  -239.5153 72.8410 -434.2021
v  -274.9684 72.8410 -434.9792
v  -274.9674 51.2710 -435.0379
v  -255.6296 55.0012 -434.6839
v  -242.9649 55.0012 -434.3392
v  -255.6302 69.1108 -434.6456
v  -242.9655 69.1108 -434.3008
# 16 vertices

vn 0.0219 0.0027 -0.9998
vn -0.0272 -0.0027 0.9996
vn 0.9998 -0.0000 0.0224
vn -0.0000 1.0000 -0.0000
vn -0.9998 0.0000 -0.0224
vn -0.0000 -1.0000 0.0000
vn -0.0233 0.0127 0.9996
vn -0.0178 -0.0027 0.9998
vn -0.0233 -0.0182 0.9996
vn -0.0257 -0.0027 0.9997
vn 0.0001 -1.0000 -0.0027
vn -0.9996 0.0000 -0.0272
vn -0.0001 1.0000 0.0027
vn 0.9996 -0.0000 0.0272
# 14 vertex normals

vt 1.0000 0.0000 0.0000
vt 0.0000 0.0000 0.0000
vt 0.0000 1.0000 0.0000
vt 1.0000 1.0000 0.0000
# 4 texture coords

g Box046
usemtl wire_108008136
s 2
f 4/4/1 3/3/1 2/2/1 1/1/1 
s 4
f 8/1/2 7/4/2 6/3/2 5/2/2 
s 8
f 2/1/3 10/4/3 9/3/3 1/2/3 
s 16
f 3/1/4 11/4/4 10/3/4 2/2/4 
s 32
f 4/1/5 12/4/5 11/3/5 3/2/5 
s 64
f 1/1/6 9/4/6 12/3/6 4/2/6 
s off
f 14/2/7 13/3/7 12/3/7 9/2/7 
f 13/3/8 15/4/8 11/4/8 12/3/8 
f 15/4/9 16/1/9 10/1/9 11/4/9 
f 16/1/10 14/2/10 9/2/10 10/1/10 
f 5/2/11 6/3/11 13/3/11 14/2/11 
f 6/3/12 7/4/12 15/4/12 13/3/12 
f 7/4/13 8/1/13 16/1/13 15/4/13 
f 8/1/14 5/2/14 14/2/14 16/1/14 
# 14 polygons

#
# object Box048
#

v  -310.7307 51.2710 -436.0233
v  -310.7298 72.8410 -436.0819
v  -275.2768 72.8410 -435.3047
v  -275.2777 51.2710 -435.2461
v  -306.6620 54.9931 -462.9360
v  -293.9973 54.9931 -462.5912
v  -293.9967 69.1027 -462.6295
v  -306.6614 69.1027 -462.9743
v  -310.1938 51.2710 -460.0310
v  -310.1928 72.8410 -460.0896
v  -274.7397 72.8410 -459.3124
v  -274.7407 51.2710 -459.2538
v  -294.0785 55.0012 -459.6078
v  -306.7432 55.0012 -459.9525
v  -294.0779 69.1108 -459.6461
v  -306.7426 69.1108 -459.9908
# 16 vertices

vn -0.0219 0.0027 0.9998
vn 0.0272 -0.0027 -0.9996
vn -0.9998 -0.0000 -0.0224
vn -0.0000 1.0000 -0.0000
vn 0.9998 0.0000 0.0224
vn 0.0000 -1.0000 0.0000
vn 0.0233 0.0127 -0.9996
vn 0.0178 -0.0027 -0.9998
vn 0.0233 -0.0182 -0.9996
vn 0.0257 -0.0027 -0.9997
vn -0.0001 -1.0000 0.0027
vn 0.9996 0.0000 0.0272
vn 0.0001 1.0000 -0.0027
vn -0.9996 -0.0000 -0.0272
# 14 vertex normals

vt 1.0000 0.0000 0.0000
vt 0.0000 0.0000 0.0000
vt 0.0000 1.0000 0.0000
vt 1.0000 1.0000 0.0000
# 4 texture coords

g Box048
usemtl wire_108008136
s 2
f 20/8/15 19/7/15 18/6/15 17/5/15 
s 4
f 24/5/16 23/8/16 22/7/16 21/6/16 
s 8
f 18/5/17 26/8/17 25/7/17 17/6/17 
s 16
f 19/5/18 27/8/18 26/7/18 18/6/18 
s 32
f 20/5/19 28/8/19 27/7/19 19/6/19 
s 64
f 17/5/20 25/8/20 28/7/20 20/6/20 
s off
f 30/6/21 29/7/21 28/7/21 25/6/21 
f 29/7/22 31/8/22 27/8/22 28/7/22 
f 31/8/23 32/5/23 26/5/23 27/8/23 
f 32/5/24 30/6/24 25/6/24 26/5/24 
f 21/6/25 22/7/25 29/7/25 30/6/25 
f 22/7/26 23/8/26 31/8/26 29/7/26 
f 23/8/27 24/5/27 32/5/27 31/8/27 
f 24/5/28 21/6/28 30/6/28 32/5/28 
# 14 polygons

